<?xml version="1.0" ?><svg id="Bold" viewBox="0 0 24 24" xmlns="http://www.w3.org/2000/svg"><title/><path d="M24,4.5A4.5,4.5,0,0,0,19.5,0H4.5A4.5,4.5,0,0,0,0,4.5v15A4.5,4.5,0,0,0,4.5,24h15A4.5,4.5,0,0,0,24,19.5Zm-12,13a9,9,0,0,1-2.45-.33.5.5,0,0,0-.35,0L5.71,18.81a.25.25,0,0,1-.33-.34l1.28-2.55a.25.25,0,0,0-.06-.3,5.57,5.57,0,0,1-2.1-4.25C4.5,8,7.86,5.26,12,5.26S19.5,8,19.5,11.38,16.14,17.49,12,17.49Z"/><circle cx="8" cy="11.5" r="1"/><circle cx="12" cy="11.5" r="1"/><circle cx="16" cy="11.5" r="1"/></svg>